<svg width="154" height="60" viewBox="0 0 154 60" fill="none" xmlns="http://www.w3.org/2000/svg">
<path d="M56.3383 24.8724V11.023H61.8499V24.8724C61.8499 27.6988 63.4044 29.112 65.9482 29.112C69.0573 29.112 69.6697 26.0501 69.764 24.5898V11.023H75.2756V24.8724C75.2756 29.6773 72.3078 33.7756 67.0788 33.7756H64.535C58.8821 33.7756 56.3383 29.3947 56.3383 24.8724Z" fill="white" stroke="white"/>
<path d="M83.6037 18.9275C85.3674 14.9785 90.5229 14.2976 93.2363 18.6552L98.1204 16.4764C96.221 12.9359 91.8796 10.8932 88.6235 11.0294C81.4329 11.0294 77.7699 16.4764 77.7699 20.9701V23.5574C77.7699 28.4597 81.84 33.6343 88.6235 33.6343C90.9299 33.4527 95 33.362 98.1204 27.915L93.2363 25.7362C90.7942 29.9576 85.9779 30.2299 83.7393 25.7362C82.654 23.5574 83.1967 20.1985 83.6037 18.9275Z" fill="white" stroke="white"/>
<path d="M40.3446 33.524V11.1954H45.4322V33.524H40.3446Z" fill="white" stroke="white"/>
<path fill-rule="evenodd" clip-rule="evenodd" d="M1 11.3056V33.6343H6.22895V26.2856H10.8926C19.6546 26.2856 19.6546 11.3056 10.8926 11.3056H1ZM6.22895 21.4807V16.1105H8.06616H9.47939C12.3058 16.1105 12.4472 21.4807 9.47939 21.4807H6.22895Z" fill="white" stroke="white"/>
<path fill-rule="evenodd" clip-rule="evenodd" d="M28.8838 16.953C40.7549 16.953 40.7549 33.0636 28.8838 33.0636C17.2953 33.0636 17.2953 16.953 28.8838 16.953ZM29.1665 28.5413C33.4062 28.5413 33.4062 21.4753 29.1665 21.4753C24.305 21.4753 24.3615 28.5413 29.1665 28.5413Z" fill="white" stroke="white" stroke-linejoin="round"/>
<path d="M48.3042 33.524V18.5441H53.3918V33.524H48.3042Z" fill="white" stroke="white"/>
<path d="M50.9893 16.8482C54.6637 16.8482 54.6637 11.1954 50.9893 11.1954C47.0323 11.1954 47.0323 16.8482 50.9893 16.8482Z" fill="#FD6A1F" stroke="#FD6A1F"/>
<path d="M108.918 11.023L100.801 33.6343H106.889L112.252 17.8354L117.615 33.6343H123.702L115.585 11.023H108.918Z" fill="white" stroke="white"/>
<path d="M112.397 32.6197C116.165 32.6197 116.165 26.8219 112.397 26.8219C108.338 26.8219 108.338 32.6197 112.397 32.6197Z" fill="#FD6A1F" stroke="#FD6A1F"/>
<path d="M112.091 55.5908C112.098 55.5204 112.379 55.4056 112.726 55.3398C114.277 55.007 118.537 53.5305 120.982 52.4748C127.635 49.5968 133.103 45.4684 135.21 41.7393C136.17 40.029 136.461 39.0774 136.649 37.1362C136.806 35.5045 136.794 35.191 136.54 34.1442C135.659 30.4812 132.845 26.8442 128.327 23.4969C126.631 22.2397 122.964 19.926 122.145 19.5912C121.816 19.4601 121.561 19.3077 121.567 19.2514C121.582 19.0967 121.96 19.1474 122.239 19.3448C122.906 19.7926 129.289 22.3547 132.069 23.2623C134.945 24.2076 136.721 24.6349 138.845 24.8402C141.728 25.133 143.345 24.8493 144.769 23.7801C147.74 21.54 148.186 16.4861 146.17 7.81507C145.979 7.00151 145.134 3.85301 144.928 3.19418C144.829 2.88655 144.782 2.64062 144.824 2.6447C144.853 2.64742 145.315 3.44461 145.832 4.4174C151.971 15.8155 153.393 26.6582 149.882 35.2209C147.536 40.9856 142.9 45.9043 136.54 49.4212C132.085 51.8869 125.886 53.8859 119.643 54.8726C117.322 55.2304 113.894 55.5947 113.303 55.5375C113.106 55.5185 112.944 55.5739 112.938 55.6442C112.929 55.7286 112.741 55.7672 112.502 55.7441C112.277 55.7223 112.085 55.647 112.091 55.5908Z" fill="#FFD409"/>
<path d="M138.861 22.3287C136.958 21.3071 136.017 19.5833 136.218 17.5015C136.637 13.169 142.267 11.6261 144.867 15.1288C145.722 16.2763 145.866 16.8439 145.713 18.4193C145.591 19.6853 145.528 19.8922 145.111 20.5334C144.08 22.0949 142.526 22.896 140.675 22.8022C139.814 22.7474 139.468 22.6572 138.861 22.3287Z" fill="#FFD409"/>
<path d="M120.888 18.9302C120.895 18.8599 121.028 18.8018 121.197 18.8181C121.352 18.833 121.429 18.9115 121.38 18.9778C121.33 19.0581 121.184 19.1008 121.071 19.0899C120.959 19.079 120.88 19.0146 120.888 18.9302Z" fill="#FFD409"/>
</svg>
