<svg width="266" height="232" viewBox="0 0 266 232" fill="none" xmlns="http://www.w3.org/2000/svg">
<path d="M91.6091 230.902C84.0952 229.568 77.7439 223.432 75.5694 215.401C75.0742 213.571 74.945 212.602 74.7943 208.985C74.5575 203 74.2346 199.965 73.5025 196.283C72.1892 189.803 69.864 185.088 66.2255 181.536C64.4601 179.813 64.4385 179.792 62.8884 178.801C60.0034 176.971 57.5059 175.981 53.4799 175.077C49.949 174.28 47.0425 174 39.8085 173.742C33.9524 173.548 32.1224 173.247 28.6561 172.02C24.7161 170.62 20.2595 167.606 17.6544 164.57C16.9439 163.752 16.3195 163.042 16.255 162.977C15.7382 162.461 14.145 160.092 13.2839 158.521C10.6788 153.849 9.36544 148.466 9.36544 142.503C9.36544 136.69 10.3773 132.276 13.0255 126.593C14.5972 123.191 14.6833 122.911 14.9632 121.167C15.5229 117.593 13.7575 112.835 10.8941 110.123C9.7745 109.068 7.57847 106.355 6.41586 104.633C3.38017 100.047 1.27025 94.7292 0.387535 89.3038C-0.129178 86.2035 -0.129178 78.6683 0.387535 75.6757C2.23909 65.0186 8.11671 55.8902 16.7286 50.3356C18.451 49.2161 21.9388 47.4722 23.1445 47.1278C23.6827 46.9771 24.221 46.7833 24.3286 46.6972C24.8023 46.3527 29.2374 45.4054 31.4765 45.1901C34.4691 44.8672 39.4425 45.104 42.0907 45.6422C46.698 46.6111 52.9847 49.2376 57.4844 52.101C61.5966 54.6846 64.6108 55.761 66.3977 55.2874C67.2159 55.0506 69.1751 53.888 69.5626 53.3713C70.3377 52.424 71.0051 50.7016 71.0912 49.4529C71.1989 47.9674 71.0482 47.3646 69.5626 43.1448C67.9694 38.6237 67.4958 35.9756 67.4958 31.8204C67.4958 29.8827 67.6465 27.3423 67.8187 26.1582C68.8091 19.1827 71.9955 12.9176 77.0334 8.03045C82.5881 2.66964 89.1977 0 96.97 0C105.13 0 112.019 2.90646 117.811 8.80551C119.124 10.1188 119.942 11.1737 121.923 14.1017C125.863 19.9147 130.729 23.8115 136.283 25.6415C138.329 26.3089 138.608 26.3519 141.666 26.3519C144.615 26.3735 145.067 26.3304 146.941 25.7706C151.096 24.5219 156.177 21.6155 160.031 18.3215C164.078 14.8337 167.91 13.176 173.035 12.6593C181.065 11.8411 188.235 14.8122 193.359 21.0126C195.662 23.8115 197.665 28.2035 198.397 32.1003C198.526 32.7461 198.72 35.5019 198.827 38.2146C199.172 45.9221 199.667 49.3453 201.088 53.3928C203.628 60.6912 208.58 65.643 215.943 68.2265C218.785 69.2384 223.608 70.1211 227.031 70.2933C234.287 70.6378 238.894 72.4463 243.135 76.623C246.3 79.7232 248.195 83.0818 249.465 87.8398C249.896 89.476 249.96 90.1649 249.96 94.2986C249.96 98.8843 249.939 98.9489 249.25 101.253C248.001 105.472 246.666 107.797 243.394 111.608C240.207 115.311 237.193 119.488 234.179 124.354C231.94 127.949 229.442 134.429 228.947 137.982C228.108 143.881 230.928 148.703 237.042 151.89C240.25 153.547 241.736 154.904 242.942 157.25C243.932 159.21 244.255 160.781 244.255 163.623C244.255 166.486 243.932 168.015 242.899 169.953C242.016 171.61 239.755 173.936 238.291 174.689C235.449 176.11 231.682 176.261 227.785 175.077C224.921 174.216 221.95 173.634 218.419 173.225C214.802 172.795 213.984 172.795 211.121 173.204C208.214 173.634 206.901 174 204.662 175.055C201.82 176.39 199.408 179.017 198.354 181.923C197.535 184.184 197.449 185.152 197.428 191.611C197.428 197.962 197.428 197.962 196.803 200.008C194.672 207.155 189.634 212.667 183.218 214.949C179.02 216.413 173.788 216.499 169.504 215.164C167.674 214.583 164.186 212.839 163.131 211.978C162.593 211.526 161.387 210.751 158.459 208.985C153.076 205.756 147.479 203.323 142.441 202.031C139.986 201.386 139.018 201.235 136.456 201.149C133.527 201.041 130.363 201.299 129.824 201.73C129.717 201.816 129.286 201.945 128.877 202.031C126.832 202.419 123.322 204.486 121.04 206.682C118.457 209.136 116.648 212.215 115.206 216.65C114.344 219.233 113.29 221.3 111.739 223.367C108.661 227.436 103.967 230.256 98.9938 230.988C96.97 231.29 93.6329 231.247 91.6091 230.902ZM100.738 223.259C102.826 222.614 104.591 220.891 103.171 220.891C102.891 220.891 101.793 221.171 100.738 221.516C99.6827 221.86 98.1541 222.312 97.3575 222.527C96.5609 222.721 95.8504 222.98 95.7858 223.066C95.6351 223.324 96.9269 223.647 98.1972 223.668C98.8215 223.69 99.9626 223.496 100.738 223.259ZM178.826 208.533C180.118 208.232 182.486 207.134 183.218 206.51C183.821 205.993 184.833 204.744 184.833 204.507C184.833 204.421 184.079 204.68 183.175 205.089C182.249 205.519 180.548 206.208 179.407 206.617C177.577 207.242 176.91 207.371 174.456 207.5C171.829 207.651 171.635 207.672 172.13 207.952C173.573 208.792 176.673 209.05 178.826 208.533ZM33.6295 163.946C34.9428 163.559 35.3734 163.128 34.9643 162.633C34.6198 162.202 32.5314 161.147 30.6799 160.458C27.4074 159.231 25.1467 157.573 22.8215 154.753C22.068 153.827 21.4221 152.966 21.379 152.815C21.3144 152.665 21.1207 152.622 20.9054 152.708C20.3887 152.901 20.5394 153.741 21.4221 155.636C23.2737 159.554 26.783 162.74 30.4861 163.838C32.2085 164.334 32.2946 164.334 33.6295 163.946ZM20.3456 146.852C20.4963 146.529 20.4533 146.313 20.1518 145.947L19.7643 145.474L19.2907 145.947C18.817 146.421 18.817 146.464 19.183 146.852C19.6567 147.368 20.0657 147.368 20.3456 146.852ZM241.779 91.0907C241.93 90.8323 241.521 90.574 241.241 90.7462C241.004 90.8969 241.155 91.2845 241.456 91.2845C241.564 91.2845 241.693 91.1983 241.779 91.0907ZM240.358 85.5792C239.626 82.8665 236.72 79.8954 235.751 80.8643C235.471 81.1441 235.471 81.2733 235.729 81.7685C235.901 82.0914 236.44 82.6943 236.935 83.1033C237.43 83.5124 238.377 84.5242 239.023 85.3208C239.691 86.1174 240.315 86.6987 240.401 86.6126C240.509 86.5049 240.487 86.0528 240.358 85.5792ZM82.179 17.7617C85.387 12.9607 87.4108 11.3244 92.3411 9.60209C93.4176 9.23609 94.3003 8.82703 94.3433 8.67633C94.5371 8.07351 91.889 7.9228 89.8221 8.39645C87.217 9.0208 83.8153 11.2383 82.0283 13.5204C80.1552 15.8887 78.9711 19.1396 79.5309 20.3668C79.8754 21.1418 80.0907 20.9265 82.179 17.7617ZM98.2833 9.1715C98.2833 8.99927 98.1972 8.80551 98.0895 8.74092C97.8742 8.59021 97.5943 9.14998 97.7881 9.34374C98.0249 9.58056 98.2833 9.47292 98.2833 9.1715Z" fill="#132A87"/>
<path d="M217.343 213.851C212.843 213.377 208.86 211.225 206.815 208.189C204.985 205.455 204.533 203.668 204.683 199.965C204.812 197.144 205.222 195.766 206.535 193.829C208.343 191.181 211.056 189.243 214.436 188.231C216.309 187.671 222.079 187.671 223.909 188.253C227.871 189.458 230.799 191.934 232.5 195.465C233.339 197.252 233.361 197.36 233.447 200.008C233.512 201.622 233.425 203.216 233.275 203.948C232.909 205.756 231.746 207.887 230.325 209.395C227.978 211.87 225.481 213.119 221.778 213.679C219.625 214.002 218.914 214.023 217.343 213.851ZM211.401 197.037C212.326 195.25 214.565 193.592 216.546 193.226C217.709 193.011 217.278 192.623 216.094 192.795C214.113 193.097 212.219 194.389 210.905 196.369C210.023 197.683 209.441 199.599 209.721 200.331C209.85 200.611 210.023 200.352 210.453 199.233C210.776 198.415 211.185 197.424 211.401 197.037Z" fill="#132A87"/>
<path d="M256.613 183.667C255.494 183.387 253.707 182.289 253.061 181.492C252.695 181.083 252.156 180.201 251.833 179.555C251.295 178.478 251.252 178.155 251.252 175.895C251.274 173.613 251.317 173.311 251.898 172.17C252.63 170.642 253.728 169.501 255.149 168.79C256.01 168.36 256.592 168.23 258.314 168.187C260.338 168.101 260.467 168.123 262.017 168.855C263.244 169.458 263.761 169.845 264.364 170.663C265.397 172.041 266 174.022 266 175.981C266 179.34 264.665 181.708 262.017 183.043C260.984 183.581 260.424 183.71 259.003 183.775C258.056 183.818 256.979 183.775 256.613 183.667Z" fill="#132A87"/>
<path d="M45.6 32.0787C44.2651 31.7988 43.5547 31.3467 42.4351 30.1196C41.2079 28.7632 40.9065 27.7729 40.9065 25.297C40.928 23.6823 41.0141 23.1656 41.4663 22.1752C42.1768 20.6897 42.8442 19.9792 44.1575 19.2903C47.3439 17.6541 51.4345 18.8597 52.9632 21.8738C54.1688 24.242 53.8889 27.9236 52.3603 29.9689C51.0685 31.7127 48.1405 32.617 45.6 32.0787Z" fill="#132A87"/>
<path d="M96.4532 108.834V90.1912H103.873V108.834C103.873 112.639 105.965 114.542 109.39 114.542C113.575 114.542 114.399 110.42 114.526 108.454V90.1912H121.945V108.834C121.945 115.302 117.95 120.819 110.912 120.819H107.487C99.8776 120.819 96.4532 114.922 96.4532 108.834Z" fill="white" stroke="white"/>
<path d="M133.156 100.832C135.53 95.5158 142.47 94.5993 146.123 100.465L152.698 97.5322C150.141 92.7662 144.297 90.0165 139.914 90.1998C130.234 90.1998 125.303 97.5322 125.303 103.581V107.064C125.303 113.663 130.782 120.629 139.914 120.629C143.018 120.385 148.497 120.263 152.698 112.93L146.123 109.997C142.836 115.68 136.352 116.046 133.339 109.997C131.878 107.064 132.608 102.543 133.156 100.832Z" fill="white" stroke="white"/>
<path d="M74.9235 120.481V90.4233H81.7722V120.481H74.9235Z" fill="white" stroke="white"/>
<path fill-rule="evenodd" clip-rule="evenodd" d="M21.9603 90.5717V120.629H28.9992V110.737H35.2772C47.0721 110.737 47.0721 90.5717 35.2772 90.5717H21.9603ZM28.9992 104.269V97.0397H31.4723H33.3747C37.1796 97.0397 37.3698 104.269 33.3747 104.269H28.9992Z" fill="white" stroke="white"/>
<path fill-rule="evenodd" clip-rule="evenodd" d="M59.4957 98.1739C75.4759 98.1739 75.4759 119.861 59.4957 119.861C43.8961 119.861 43.8961 98.1739 59.4957 98.1739ZM59.8763 113.773C65.5835 113.773 65.5835 104.261 59.8763 104.261C53.332 104.261 53.4081 113.773 59.8763 113.773Z" fill="white" stroke="white" stroke-linejoin="round"/>
<path d="M85.6382 120.481V100.316H92.4869V120.481H85.6382Z" fill="white" stroke="white"/>
<path d="M89.2528 98.0328C94.199 98.0328 94.199 90.4233 89.2528 90.4233C83.9261 90.4233 83.9261 98.0328 89.2528 98.0328Z" fill="#FD6A1F" stroke="#FD6A1F"/>
<path d="M167.233 90.1912L156.306 120.629H164.501L171.72 99.3616L178.94 120.629H187.135L176.208 90.1912H167.233Z" fill="white" stroke="white"/>
<path d="M171.915 119.263C176.988 119.263 176.988 111.459 171.915 111.459C166.452 111.459 166.452 119.263 171.915 119.263Z" fill="#FD6A1F" stroke="#FD6A1F"/>
<path d="M171.504 150.186C171.513 150.091 171.891 149.936 172.358 149.848C174.447 149.4 180.182 147.412 183.473 145.991C192.429 142.117 199.789 136.56 202.625 131.54C203.918 129.237 204.309 127.956 204.562 125.343C204.774 123.147 204.758 122.725 204.416 121.316C203.23 116.385 199.441 111.489 193.359 106.983C191.077 105.29 186.141 102.176 185.038 101.725C184.596 101.549 184.253 101.344 184.26 101.268C184.28 101.059 184.79 101.128 185.165 101.393C186.063 101.996 194.655 105.445 198.397 106.667C202.269 107.94 204.66 108.515 207.519 108.791C211.399 109.185 213.577 108.803 215.493 107.364C219.493 104.349 220.093 97.5453 217.38 85.8729C217.122 84.7777 215.984 80.5394 215.707 79.6526C215.575 79.2384 215.511 78.9074 215.568 78.9129C215.606 78.9165 216.228 79.9897 216.923 81.2992C225.188 96.6425 227.102 111.238 222.376 122.765C219.218 130.525 212.977 137.146 204.416 141.88C198.419 145.2 190.074 147.891 181.67 149.219C178.546 149.7 173.931 150.191 173.135 150.114C172.87 150.088 172.653 150.163 172.644 150.258C172.633 150.371 172.379 150.423 172.057 150.392C171.754 150.363 171.497 150.261 171.504 150.186Z" fill="#FFD409"/>
<path d="M207.54 105.41C204.978 104.035 203.712 101.715 203.983 98.9122C204.546 93.08 212.125 91.0031 215.625 95.7182C216.776 97.2628 216.969 98.0269 216.764 100.148C216.6 101.852 216.515 102.13 215.954 102.994C214.566 105.096 212.474 106.174 209.982 106.048C208.824 105.974 208.357 105.852 207.54 105.41Z" fill="#FFD409"/>
<path d="M183.346 100.835C183.355 100.741 183.535 100.663 183.762 100.684C183.97 100.705 184.075 100.81 184.009 100.899C183.941 101.008 183.744 101.065 183.593 101.05C183.441 101.036 183.335 100.949 183.346 100.835Z" fill="#FFD409"/>
</svg>
